<svg xmlns="http://www.w3.org/2000/svg" viewBox="0 0 64 64">
  <defs>
    <radialGradient id="bg" cx="50%" cy="42%" r="72%">
      <stop offset="0%" stop-color="#181010"/>
      <stop offset="58%" stop-color="#070404"/>
      <stop offset="100%" stop-color="#000000"/>
    </radialGradient>
    <radialGradient id="lens" cx="36%" cy="34%" r="72%">
      <stop offset="0%" stop-color="#ffd7d7"/>
      <stop offset="17%" stop-color="#ff5a4d"/>
      <stop offset="42%" stop-color="#e00000"/>
      <stop offset="74%" stop-color="#740000"/>
      <stop offset="100%" stop-color="#210000"/>
    </radialGradient>
    <radialGradient id="core" cx="40%" cy="38%" r="64%">
      <stop offset="0%" stop-color="#ffffff"/>
      <stop offset="26%" stop-color="#ffb0aa"/>
      <stop offset="100%" stop-color="#ff2a1c"/>
    </radialGradient>
    <filter id="redGlow" x="-40%" y="-40%" width="180%" height="180%">
      <feGaussianBlur stdDeviation="2.2" result="blur"/>
      <feColorMatrix in="blur" type="matrix" values="1 0 0 0 0.9  0 0 0 0 0  0 0 0 0 0  0 0 0 .85 0" result="glow"/>
      <feMerge>
        <feMergeNode in="glow"/>
        <feMergeNode in="SourceGraphic"/>
      </feMerge>
    </filter>
  </defs>
  <rect x="2" y="2" width="60" height="60" rx="16" fill="url(#bg)"/>
  <rect x="2.7" y="2.7" width="58.6" height="58.6" rx="15.3" fill="none" stroke="#2a0000" stroke-width="1.4"/>
  <circle cx="32" cy="32" r="22" fill="none" stroke="#ff2020" stroke-opacity=".78" stroke-width="1.8" filter="url(#redGlow)"/>
  <circle cx="32" cy="32" r="18.5" fill="none" stroke="#ff5a4d" stroke-opacity=".28" stroke-width="1.4"/>
  <circle cx="32" cy="32" r="15" fill="url(#lens)" filter="url(#redGlow)"/>
  <circle cx="32" cy="32" r="8.2" fill="#160000"/>
  <circle cx="29.2" cy="29.2" r="4.8" fill="url(#core)" opacity=".96"/>
  <ellipse cx="27" cy="24.5" rx="6.2" ry="3.2" fill="#ffd6d6" opacity=".36" transform="rotate(-24 27 24.5)"/>
  <path d="M13 18 L22 22 M42 42 L51 46 M14 46 L23 42 M41 22 L50 18" stroke="#9d0000" stroke-width="1.5" stroke-linecap="round" opacity=".54"/>
</svg>
